PathFileType	3	(X/Y/Z)	running_1__view2_aligned.trc
DataRate	CameraRate	NumFrames	NumMarkers	Units	OrigDataRate	OrigDataStartFrame	OrigNumFrames
100.0	100.0	9	19	mm	100.0	1805	6426
Frame#	Time	pelvis			neck			head			hip_left			hip_right			knee_left			knee_right			ankle_left			ankle_right			heel_left			heel_right			toe_left			toe_right			shoulder_left			shoulder_right			elbow_left			elbow_right			wrist_left			wrist_right			
		X1	Y1	Z1	X2	Y2	Z2	X3	Y3	Z3	X4	Y4	Z4	X5	Y5	Z5	X6	Y6	Z6	X7	Y7	Z7	X8	Y8	Z8	X9	Y9	Z9	X10	Y10	Z10	X11	Y11	Z11	X12	Y12	Z12	X13	Y13	Z13	X14	Y14	Z14	X15	Y15	Z15	X16	Y16	Z16	X17	Y17	Z17	X18	Y18	Z18	X19	Y19	Z19	
1805	18.04000	40.044781	935.701871	138.593864	43.757471	1484.460481	259.128021	32.458122	1580.403010	402.135248	114.667442	936.495881	138.413150	-34.578212	934.907857	138.774529	140.880648	534.031740	292.981120	-83.411496	519.512325	195.930686	128.910917	155.462702	166.704544	-95.856222	257.580597	-113.527733	123.440438	112.420708	127.682706	-92.758257	247.809084	-168.613594	131.636994	87.445268	340.161125	-109.515430	100.189045	-33.047607	203.091666	1434.764178	191.979838	-125.644224	1442.466146	223.294296	277.143575	1214.310106	30.911499	-208.255752	1185.450863	135.916515	318.639329	1043.884795	156.882808	-111.001115	1107.452976	332.674105
1806	18.05000	41.979971	936.640473	137.828646	46.329469	1485.414487	258.895398	34.601930	1580.957466	402.068908	116.615887	937.511471	137.748242	-32.656252	935.769464	137.909003	141.954358	534.777623	287.569786	-83.093938	521.064117	197.156604	129.598047	151.150947	165.383815	-96.004457	260.016874	-110.153360	124.011017	107.073665	126.488828	-92.946227	250.441493	-165.007543	132.559541	84.511873	342.311903	-109.660761	102.661199	-30.382406	206.272963	1434.932555	193.198285	-122.947001	1444.574354	222.218239	279.104310	1212.356222	35.915454	-206.406608	1189.344768	131.704084	312.713680	1047.884781	162.580240	-112.135301	1108.258502	326.289917
1807	18.06000	43.915162	937.579075	137.063428	48.901467	1486.368492	258.662776	36.745738	1581.511923	402.002569	118.564331	938.527061	137.083334	-30.734292	936.631071	137.043477	143.028068	535.523506	282.158453	-82.776380	522.615910	198.382521	130.285176	146.839192	164.063086	-96.152692	262.453150	-106.778988	124.581596	101.726621	125.294950	-93.134197	253.073902	-161.401493	133.482089	81.578478	344.462682	-109.806091	105.133353	-27.717205	209.454259	1435.100933	194.416733	-120.249779	1446.682561	221.142182	281.065045	1210.402337	40.919410	-204.557464	1193.238674	127.491652	306.788031	1051.884767	168.277672	-113.269488	1109.064028	319.905729
1808	18.07000	45.850353	938.517678	136.298209	51.473465	1487.322497	258.430153	38.889545	1582.066379	401.936229	120.512776	939.542650	136.418425	-28.812332	937.492677	136.177951	144.101778	536.269389	276.747119	-82.458822	524.167702	199.608439	130.972305	142.527437	162.742356	-96.300927	264.889427	-103.404616	125.152175	96.379578	124.101072	-93.322168	255.706311	-157.795443	134.404637	78.645082	346.613460	-109.951421	107.605506	-25.052004	212.635555	1435.269311	195.635181	-117.552557	1448.790769	220.066125	283.025781	1208.448453	45.923366	-202.708320	1197.132579	123.279220	300.862383	1055.884753	173.975103	-114.403675	1109.869554	313.521540
1809	18.08000	47.785543	939.456280	135.532991	54.045463	1488.276502	258.197530	41.033353	1582.620835	401.869889	122.461220	940.558240	135.753517	-26.890373	938.354284	135.312425	145.175488	537.015272	271.335785	-82.141265	525.719494	200.834357	131.659434	138.215682	161.421627	-96.449162	267.325704	-100.030243	125.722754	91.032535	122.907194	-93.510138	258.338720	-154.189393	135.327184	75.711687	348.764239	-110.096752	110.077660	-22.386803	215.816851	1435.437688	196.853629	-114.855334	1450.898977	218.990067	284.986516	1206.494568	50.927322	-200.859176	1201.026485	119.066789	294.936734	1059.884739	179.672535	-115.537862	1110.675080	307.137352
1810	18.09000	50.369592	939.843999	135.436760	55.993000	1488.882527	258.314997	42.048086	1583.148323	401.636691	125.022735	940.992207	135.660834	-24.283765	938.695764	135.212651	147.871149	535.940022	263.073965	-79.613034	527.278231	206.513325	134.071570	137.723972	150.980807	-94.633249	266.848738	-89.091535	127.854822	90.960529	112.295383	-91.861921	257.389238	-142.808868	138.359208	73.671936	336.642574	-108.051801	111.024760	-10.364786	218.557350	1436.247373	199.927871	-112.250608	1452.321425	217.281560	289.353530	1206.642539	58.345461	-198.435891	1205.449275	112.200305	289.059218	1064.258019	188.478124	-119.034874	1109.043192	296.175958
1811	18.10000	52.953641	940.231718	135.340529	57.940536	1489.488552	258.432465	43.062819	1583.675811	401.403494	127.584250	941.426175	135.568150	-21.677158	939.037244	135.112878	150.566810	534.864772	254.812145	-77.084803	528.836967	212.192294	136.483706	137.232261	140.539987	-92.817335	266.371773	-78.152827	129.986889	90.888523	101.683571	-90.213704	256.439755	-131.428343	141.391232	71.632184	324.520910	-106.006850	111.971861	1.657231	221.297848	1437.057058	203.002114	-109.645882	1453.743872	215.573052	293.720544	1206.790509	65.763600	-196.012606	1209.872065	105.333821	283.181702	1068.631299	197.283712	-122.531885	1107.411304	285.214563
1812	18.11000	55.537690	940.619436	135.244298	59.888073	1490.094576	258.549932	44.077552	1584.203299	401.170296	130.145765	941.860142	135.475467	-19.070550	939.378723	135.013105	153.262471	533.789523	246.550325	-74.556573	530.395703	217.871262	138.895842	136.740550	130.099167	-91.001421	265.894808	-67.214118	132.118956	90.816517	91.071760	-88.565488	255.490273	-120.047818	144.423255	69.592433	312.399245	-103.961899	112.918961	13.679248	224.038346	1437.866743	206.076356	-107.041156	1455.166319	213.864544	298.087558	1206.938479	73.181739	-193.589321	1214.294856	98.467337	277.304186	1073.004579	206.089301	-126.028897	1105.779416	274.253169
1813	18.12000	58.121739	941.007155	135.148067	61.835609	1490.700601	258.667399	45.092284	1584.730788	400.937099	132.707279	942.294109	135.382784	-16.463943	939.720203	134.913332	155.958132	532.714273	238.288505	-72.028342	531.954440	223.550231	141.307978	136.248840	119.658346	-89.185507	265.417843	-56.275410	134.251024	90.744511	80.459948	-86.917271	254.540791	-108.667292	147.455279	67.552681	300.277581	-101.916948	113.866061	25.701265	226.778844	1438.676427	209.150599	-104.436430	1456.588767	212.156036	302.454572	1207.086450	80.599878	-191.166036	1218.717646	91.600854	271.426671	1077.377859	214.894890	-129.525909	1104.147527	263.291774
